<svg width="658" height="658" viewBox="0 0 658 658" fill="none" xmlns="http://www.w3.org/2000/svg">
<g clip-path="url(#clip0_1956_35)">
<path fill-rule="evenodd" clip-rule="evenodd" d="M432.527 1.88123C397.582 20.2681 420.983 61.4119 424.575 90.1559C429.233 123.07 425.655 158.372 409.475 187.64C397.103 159.868 390.432 123.068 380.267 91.8275C374.801 68.2741 363.163 16.0293 329.612 35.1642C309.055 63.3323 344.441 94.7375 353.225 121.432C357.26 132.428 390.25 180.886 361.56 154.318C342.376 129.913 329.078 87.8333 291.431 89.9394C259.128 102.06 293.926 148.398 313.575 159.646C341.947 178.175 369.897 200.453 382.169 233.174C407.909 292.819 395.098 360.428 381.105 421.414C371.765 453.691 361.309 495.278 325.67 507.266C294.177 517.886 260.146 483.451 278.955 453.286C295.833 423.9 329.714 408.452 342.508 375.999C356.566 347.351 377.242 320.578 367.357 283.791C354.191 255.18 333.17 268.323 326.787 297.701C327.42 332.882 326.699 368.422 298.049 391.972C276.059 404.358 260.067 399.947 263.769 368.163C280.518 292.909 288.855 211.605 254.735 140.044C239.84 113.906 222.777 85.0652 194.35 71.6741C154.972 54.3536 146.265 114.35 178.772 127.752C199.796 138.342 251.539 167.451 224.788 190.343C181.488 183.818 160.209 118.8 115.031 130.97C78.3285 140.11 141.307 190.682 167.137 198.982C191.945 208.474 215.258 226.244 229.452 249.722C253.431 285.856 257.195 333.518 238.645 372.888C224.24 402.887 217.667 438.643 233.27 469.604C239.103 485.999 267.912 519.324 229.945 505.826C191.595 502.492 146.952 479.345 144.698 436.45C142.032 388.081 182.332 344.075 168.017 294.944C148.086 261.155 130.321 302.518 143.371 324.354C148.128 341.47 119.656 388.182 122.81 348.32C119.105 319.102 120.26 288.602 111.205 260.525C77.0703 235.466 88.9544 300.825 87.4772 318.847C91.8614 337.552 81.7317 347.402 74.499 326.243C72.4425 297.185 14.935 269.974 19.2012 313.192C43.1836 337.621 75.729 355.519 90.5609 388.34C114.664 427.723 107.404 479.677 138.314 515.805C179.101 551.354 241.611 522.085 282.821 556.729C308.997 581.291 301.503 621.614 302.161 652.044C340.423 671.026 384.804 643.382 403.984 609.694C429.232 571.139 444.964 522.591 487.064 498.221C518.852 473.307 560.51 471.815 598.853 467.72C637.282 459.35 608.768 408.403 578.023 422.794C565.29 429.193 548.435 436.995 566.358 417.972C594.385 377.52 625.136 336.995 639.916 289.552C649.492 253.286 598.504 250.486 594.07 276.405C583.081 291.209 577.195 325.487 562.185 327.321C558.59 300.342 551.092 271.486 533.089 250.486C497.383 232.617 492.019 289.094 510.084 309.25C523.383 334.201 547.629 363.559 532.789 392.934C513.798 423.063 482.579 443.188 456.841 467.611C433.74 490.866 407.875 512.28 384.123 534.4C404.571 471.022 430.604 408.955 451.197 345.437C462.938 312.757 475.4 279.206 484.959 245.005C494.437 214.551 461.663 221.52 451.004 247.29C446.194 264.435 441.807 290.228 431.599 298.373C412.217 239.831 437.394 180.135 457.634 125.529C468.693 90.6246 488.249 50.4711 469.155 15.0744C460.729 2.26074 446.995 -0.245726 432.527 1.88123Z" fill="#F2F2F2"/>
</g>
<defs>
<clipPath id="clip0_1956_35">
<rect width="658" height="658" fill="white"/>
</clipPath>
</defs>
</svg>
