<svg width="354" height="294" viewBox="0 0 354 294" fill="none" xmlns="http://www.w3.org/2000/svg">
<path fill-rule="evenodd" clip-rule="evenodd" d="M344.663 21.1828C359.917 37.7534 352.911 65.0272 335.803 77.4879C322.011 90.2334 303.026 94.1445 285.063 96.0176C249.97 107.79 240.811 146.752 209.401 164.819C196.34 176.03 207.586 181.175 220.01 181.124C242.015 181.33 257.259 158.13 279.271 162.323C304.842 164.153 309.776 198.833 285.417 207.388C264.754 219.408 242.742 206.168 222.355 200.975C210.835 196.963 187.149 200.097 193.488 217.225C202.184 233.909 219.481 246.578 221.251 266.429C224.642 287.101 196.767 304.267 182.295 286.542C170.606 273.499 177.439 255.403 176.238 239.757C177.359 222.917 168.661 203.507 150.803 199.808C129.971 197.083 110.65 216.227 108.951 236.184C113.548 255.004 87.8479 260.847 85.466 241.646C77.1499 219.401 91.042 197.205 87.6789 174.782C83.7683 159.169 72.6134 145.34 58.7624 137.132C41.7928 126.376 19.5189 122.141 7.46288 104.977C-5.73473 88.743 10.2213 60.9372 30.6803 74.5291C48.9949 83.7958 59.2588 122.821 72.0012 116.592C84.8314 109.309 68.5971 87.7714 65.7866 75.8948C59.065 59.7297 52.0429 37.4372 66.3571 23.2879C79.9705 10.1258 102.117 20.5995 105.104 37.9403C109.767 53.9678 106.132 70.8999 101.693 86.5442C98.818 94.6678 107.65 107.311 114.674 90.6289C122.919 72.8622 124.988 53.301 133.049 35.8795C143.777 16.2344 160.326 -5.81819 179.41 5.60701C196.028 22.5418 174.975 41.7532 161.201 51.7027C143.755 67.4585 136.151 78.2405 124.279 110.419C119.546 126.507 108.075 152.323 128.971 155.352C146.233 156.843 142.089 129.449 146.775 115.231C150.992 96.767 157.321 74.2271 176.856 66.8245C195.446 58.6466 217.416 81.301 202.832 98.1104C190.92 112.609 168.612 115.884 159.825 133.12C153.054 156.073 180.365 154.79 194.917 146.34C214.502 132.279 228.891 112.421 243.553 93.6313C253.508 73.9483 236.619 55.0986 224.641 41.0152C214.536 29.9692 207.68 7.92288 225.891 1.08796C247.331 -4.58839 259.133 22.7301 260.892 40.144C259.65 58.4449 281.469 71.1939 294.671 56.8337C309.102 45.0746 315.477 21.8251 335.994 18.874C339.021 18.9003 341.998 19.7792 344.663 21.1828ZM1.25683 89.5379C-1.17957 91.4342 3.18427 90.128 1.25683 89.5379Z" fill="#F2F2F2"/>
</svg>
