<svg width="284" height="303" viewBox="0 0 284 303" fill="none" xmlns="http://www.w3.org/2000/svg">
<path fill-rule="evenodd" clip-rule="evenodd" d="M37.626 0.0934667C18.4689 6.85201 12.5297 31.5405 20.8997 48.6945C26.5061 64.6745 39.9836 75.8097 53.5074 84.8895C76.5009 109.092 67.3396 144.002 84.7383 171.664C90.4104 186.112 79.2751 185.461 69.3953 180.172C51.7721 171.042 49.4249 146.119 30.1114 140.162C8.96006 130.819 -9.62289 156.365 6.17546 173.47C17.5639 191.774 40.6994 190.523 59.1401 194.998C70.0152 196.667 87.568 209.169 75.2798 220.137C61.3013 229.757 42.1647 232.543 32.3681 247.611C20.9323 262.649 35.8945 288.099 54.9165 280.09C69.741 274.636 88.8076 262.957 96.3749 251C102.596 237.11 116.206 226.419 132 231.015C149.754 237.643 172.078 274.382 165 291C153.387 304.052 181.562 308.291 191.571 294C207.597 279.79 165.379 247.46 177.533 231.015C187.245 220.229 201.977 213.922 216.483 213.234C234.55 211.832 254.09 217.866 270.949 209.284C288.324 201.925 287.356 173.032 265.309 175.219C246.799 174.866 222.133 201.622 214.61 191.277C207.462 180.055 229.498 169.754 236.755 161.479C248.941 151.439 263.955 136.644 258.525 119.325C253.237 103.089 231.163 102.079 221.457 114.632C210.97 125.432 206.713 140.457 203.642 154.797C202.501 162.483 190.121 168.826 191.571 152.568C192.506 134.93 199.121 118.471 200.057 101.187C199.808 81.0041 195.936 56.4445 175.9 57.486C155.503 63.9589 164.164 88.1572 170.937 101.902C178.184 121.824 179.689 133.626 175.556 164.277C172.531 179.094 170.767 204.507 152.834 198.094C138.448 191.99 153.323 171.916 155.596 158.609C160.035 142.117 164.514 121.487 152.073 107.337C140.713 92.9695 113.635 101.739 118.156 121.291C121.523 137.874 132.279 144.035 132 161.479C127.699 182.626 112.115 175.937 104.088 163.059C94.4202 143.584 91.3426 121.685 87.5958 100.522C87.9778 80.6353 109.401 72.7517 124.896 66.5905C137.615 62.0583 152.392 47.3897 140.767 34.2522C126.08 20.6738 105.133 37.4535 96.3749 50.5845C89.6329 65.6894 66.8589 66.6306 62.4047 49.6132C55.8715 34.1488 60.6137 12.9333 45.5099 1.91581C43.0865 0.658191 40.3426 0.100804 37.626 0.0934667ZM282.417 199.605C283.557 202.145 280.632 199.261 282.417 199.605Z" fill="#F2F2F2"/>
</svg>
