<svg width="251" height="312" viewBox="0 0 251 312" fill="none" xmlns="http://www.w3.org/2000/svg">
<path fill-rule="evenodd" clip-rule="evenodd" d="M74.8418 0.560053C55.7449 1.88695 44.1499 22.8186 47.4435 40.5008C48.5219 56.4228 57.9661 69.9213 67.9686 81.5647C82.7736 109.322 65.6849 138.727 74.5396 168.221C76.0625 182.768 66.1123 179.38 58.4674 172.096C44.7543 159.377 48.8822 136.151 32.8369 125.89C15.9728 112.092 -7.32127 130.626 2.73138 150.13C8.47766 169.615 29.8047 174.289 45.4295 182.985C54.8875 187.233 67.6899 202.996 53.7742 209.872C38.6624 215.098 20.5816 212.822 7.8994 224.047C-6.26395 234.832 0.933269 261.706 20.2214 259.209C35.0556 257.979 41.3996 242.815 51.2759 233.856C60.4146 222.803 77.1192 215.894 90.3094 224.036C104.769 234.515 98.1023 278.185 87.5 291.5C73.674 300.438 95.8191 318.966 108.5 308.5C126.624 299.618 128.745 257.317 143.913 245.434C155.443 238.076 170.408 236.048 183.755 239.066C200.517 242.331 216.749 252.719 234.216 249.159C251.846 246.839 258.223 220.354 237.65 216.803C220.927 211.833 191.804 229.939 187.569 218.654C183.896 206.666 206.497 202.845 215.167 197.152C228.756 191.094 246.108 181.427 245.527 164.334C244.802 148.259 225.007 141.797 213.038 150.761C200.801 157.936 193.161 170.514 186.77 182.766C183.803 189.46 170.966 192.112 176.367 177.71C181.646 161.925 191.787 148.638 196.979 133.174C201.821 114.781 204.473 91.5022 186.015 87.416C165.863 88.1719 167.652 112.325 170.351 126.51C171.93 146.424 170.332 157.522 158.88 184.322C152.411 197.02 144.426 219.658 129.749 209.33C118.216 200.173 136.768 185.676 142.175 174.161C150.349 160.298 159.599 142.685 151.853 126.709C145.144 110.806 118.347 111.97 117.543 130.863C116.436 146.77 128.304 161.815 123.67 177.588C114.452 195.715 98.3309 178.979 94.2748 165.266C90.3858 145.15 93.0907 124.487 95.003 104.324C100.345 86.3585 121.782 84.5789 137.403 82.8747C150.093 81.9529 167.199 72.3417 159.94 57.4898C150.011 41.4683 126.772 51.4475 115.519 61.1739C105.602 73.1996 84.681 68.3344 84.9096 51.7597C82.8599 36.0734 92.4955 17.9954 81.5447 4.19533C79.6595 2.44444 77.3073 1.24902 74.8418 0.560053ZM247.063 243.248C247.461 245.842 245.528 242.487 247.063 243.248Z" fill="#298DBC"/>
</svg>
