<svg width="397" height="392" viewBox="0 0 397 392" fill="none" xmlns="http://www.w3.org/2000/svg">
<path fill-rule="evenodd" clip-rule="evenodd" d="M33.0939 0.267913C7.33886 11.9179 2.04008 46.8596 15.6829 69.6518C25.3551 91.1446 45.3632 104.983 65.1914 115.966C99.9455 146.794 90.6902 201.4 123.031 233.991C134.549 252.471 109.7 259.937 98.5446 246.206C73.0272 235.64 66.8104 201.358 39.3269 195.394C8.89325 184.954 -13.8324 222.588 10.103 244.429C28.0673 268.457 59.9925 263.971 86.0897 267.983C101.365 269.005 127.185 284.254 111.453 300.925C93.2179 315.926 67.0192 322.066 55.229 344.126C41.1625 366.338 64.9309 399.851 90.3498 386.483C110.253 377.158 111.246 352.9 120.316 335.419C127.289 315.418 146.865 297.269 169.307 301.765C194.707 308.845 207.624 340.443 199.787 364.329C185.239 383.809 212.054 403.176 224.232 382.168C244.759 360.557 239.611 328.1 254.505 303.851C266.687 287.738 286.361 277.242 306.389 274.562C331.27 270.47 359.076 276.514 381.429 262.608C404.643 250.338 399.865 210.387 369.561 216.041C343.857 217.753 327.636 246.869 301.182 244.338C289.939 229.626 319.264 212.72 328.342 200.382C344.042 185.011 363.098 162.711 353.511 139.34C344.25 117.454 313.527 118.678 301.564 137.24C288.309 153.463 284.194 174.805 281.641 195.054C289.602 217.296 257.167 216.644 264.642 193.398C263.841 168.829 270.702 144.163 265.719 119.731C270.018 94.9432 259.265 59.5856 231.613 63.4122C204.105 74.8135 218.989 107.339 230.013 125.594C242.427 152.358 254.547 183.867 242.421 212.949C243.336 231.566 238.984 263.164 216.101 264.312C199.852 249.339 213.916 224.777 215.485 206.054C219.679 182.657 223.436 153.516 204.507 135.374C187.05 116.801 150.552 132.181 159.144 158.757C165.783 181.352 189.942 196.086 191.628 220.308C188.18 250.144 151.541 241.329 144.606 218.349C128.888 192.493 122.018 162.492 114.308 133.59C112.474 105.968 141.236 92.4885 161.985 82.1023C179.08 74.305 197.823 52.207 180.144 35.3715C158.168 18.2889 131.124 44.048 120.543 63.2981C112.992 85.0457 81.5307 89.0588 73.3326 65.9905C62.437 45.3229 66.4892 15.3394 44.2404 1.8575C40.7312 0.40172 36.8609 -0.0449371 33.0939 0.267913ZM396.177 247.823C398.06 251.209 393.661 247.558 396.177 247.823Z" fill="white"/>
</svg>
