<?xml version="1.0" encoding="UTF-8" standalone="no"?>
<svg
   version="1.1"
   viewBox="0 0 400 400"
   id="svg5"
   sodipodi:docname="seaweed.svg"
   inkscape:version="1.4 (1:1.4+202410161351+e7c3feb100)"
   xmlns:inkscape="http://www.inkscape.org/namespaces/inkscape"
   xmlns:sodipodi="http://sodipodi.sourceforge.net/DTD/sodipodi-0.dtd"
   xmlns="http://www.w3.org/2000/svg"
   xmlns:svg="http://www.w3.org/2000/svg">
  <defs
     id="defs5" />
  <sodipodi:namedview
     id="namedview5"
     pagecolor="#ffffff"
     bordercolor="#000000"
     borderopacity="0.25"
     inkscape:showpageshadow="2"
     inkscape:pageopacity="0.0"
     inkscape:pagecheckerboard="0"
     inkscape:deskcolor="#d1d1d1"
     showgrid="false"
     inkscape:zoom="1.00375"
     inkscape:cx="65.255293"
     inkscape:cy="205.72852"
     inkscape:window-width="1920"
     inkscape:window-height="1011"
     inkscape:window-x="0"
     inkscape:window-y="0"
     inkscape:window-maximized="1"
     inkscape:current-layer="g5" />
  <g
     fill-rule="evenodd"
     id="g5">
    <path
       d="M 34.094,4.268 C 8.3389739,15.917985 3.0401981,50.85969 16.683044,73.651847 c 9.67213,21.492877 29.680316,35.331433 49.508429,46.314333 34.754097,30.82749 26.203346,80.32611 53.612457,116.61624 9.58103,19.36041 -5.93379,19.78211 -20.25923,13.62323 -25.517361,-10.56572 -31.734149,-44.84731 -59.217644,-50.81155 -30.4336929,-10.44042 -53.15932,27.1935 -29.223892,49.03472 17.964274,24.02792 49.889459,19.54198 75.986678,23.55467 15.275018,1.02168 41.095438,16.27029 25.363718,32.94187 -18.235554,15.00095 -44.434264,21.14092 -56.224476,43.2006 -14.066493,22.21179 9.701898,55.72498 35.120834,42.35731 19.903642,-9.32562 20.896192,-33.58277 29.965702,-51.06392 6.973,-20.00088 26.54903,-38.15034 48.99112,-33.6543 25.4005,7.08031 38.31757,38.67805 30.4806,62.56356 -14.54851,19.48032 12.26635,38.8478 24.44462,17.83961 20.52715,-21.61087 15.37891,-54.06845 30.27283,-78.31726 12.1819,-16.11239 31.85611,-26.60926 51.88434,-29.28926 24.88108,-4.09129 52.68747,1.95268 75.03977,-11.95364 23.21379,-12.27044 18.43609,-52.22097 -11.86785,-46.56672 -25.70363,1.71133 -56.71891,41.74706 -68.37865,28.29661 -11.2432,-14.71202 18.08205,-31.61743 27.15931,-43.95536 15.70029,-15.37106 34.75599,-37.67182 25.16963,-61.04261 -9.26168,-21.88632 -39.98376,-20.66232 -51.94768,-2.09976 -13.25457,16.22305 -17.36998,37.56448 -19.92301,57.81375 -0.66813,10.7944 -17.07692,21.06189 -16.99883,-1.6554 -0.80095,-24.56936 6.41301,-48.17904 5.65626,-72.25891 -2.7455,-27.95752 -11.03262,-61.553934 -38.68487,-57.727338 -27.50855,11.40129 -12.62448,43.927188 -1.60054,62.181548 12.41493,26.76398 15.90462,42.9511 13.81786,85.94658 -2.43202,20.90643 -1.85724,56.35575 -27.48024,49.59599 -20.66997,-6.75392 -2.43388,-36.35954 -0.86481,-55.08249 4.19399,-23.39701 7.95074,-52.53835 -10.97868,-70.6799 -17.45673,-18.57281 -53.95505,-3.19292 -45.36313,23.38278 6.63949,22.59496 30.79818,37.32923 32.48495,61.55138 -3.44858,29.83587 -34.36334,14.94513 -47.0227,-1.95866 -15.71755,-25.85679 -22.5874,-55.85755 -30.29774,-84.75944 -1.83439,-27.622 26.92821,-41.101562 47.67713,-51.487723 17.0945,-7.797285 35.83738,-29.895334 18.15922,-46.730832 -21.97644,-17.082614 -49.02069,8.676493 -59.6018,27.926583 -7.5511,21.747648 -39.011931,25.760725 -47.210027,2.692426 C 63.437113,49.323012 67.489343,19.339499 45.240499,5.857584 41.731315,4.4018068 37.861031,3.9551499 34.094,4.268 Z m 313.514,125.952 1.71896,1.2057 z m 49.569,121.603 c 1.88308,3.38649 -2.516,-0.26464 0,0 z"
       fill="#7cdca4"
       id="path1"
       sodipodi:nodetypes="ccccccccccccccccccccccccccccccccccccccccccccccc" />
    <path
       d="m 184.22,72.889 c -0.76938,1.874774 -0.45417,1.106685 0,0 z m 82.844,62.578 c -3.51932,-0.20291 1.8134,2.18496 0,0 z"
       fill="#80dca4"
       id="path4"
       sodipodi:nodetypes="cccc" />
    <path
       d="m 184.22,72.889 c -0.76938,1.874774 -0.45417,1.106685 0,0 z m 82.844,62.578 c -3.51932,-0.20291 1.8134,2.18496 0,0 z m 9.349,94.91 c 0.0846,3.51094 3.19514,-8.87403 0,0 z"
       fill="#80dca4"
       id="path5"
       sodipodi:nodetypes="cccccc" />
  </g>
</svg>
